<svg width="62" height="20" viewBox="0 0 62 20" fill="none" xmlns="http://www.w3.org/2000/svg">
<path fill-rule="evenodd" clip-rule="evenodd" d="M2 1C2 0.447715 1.55228 0 1 0C0.447715 0 0 0.447715 0 1V19C0 19.5523 0.447715 20 1 20C1.55228 20 2 19.5523 2 19V1ZM62 1C62 0.447715 61.5523 0 61 0C60.4477 0 60 0.447715 60 1V19C60 19.5523 60.4477 20 61 20C61.5523 20 62 19.5523 62 19V1ZM23 0C23.5523 0 24 0.447715 24 1V19C24 19.5523 23.5523 20 23 20C22.4477 20 22 19.5523 22 19V1C22 0.447715 22.4477 0 23 0ZM38 1C38 0.447715 37.5523 0 37 0C36.4477 0 36 0.447715 36 1V19C36 19.5523 36.4477 20 37 20C37.5523 20 38 19.5523 38 19V1ZM5 2C5.55228 2 6 2.44772 6 3V17C6 17.5523 5.55228 18 5 18C4.44772 18 4 17.5523 4 17V3C4 2.44772 4.44772 2 5 2ZM57 3C57 2.44772 56.5523 2 56 2C55.4477 2 55 2.44772 55 3V17C55 17.5523 55.4477 18 56 18C56.5523 18 57 17.5523 57 17V3ZM18 2C18.5523 2 19 2.44772 19 3V17C19 17.5523 18.5523 18 18 18C17.4477 18 17 17.5523 17 17V3C17 2.44772 17.4477 2 18 2ZM43 3C43 2.44772 42.5523 2 42 2C41.4477 2 41 2.44772 41 3V17C41 17.5523 41.4477 18 42 18C42.5523 18 43 17.5523 43 17V3ZM9 5C9.55228 5 10 5.44772 10 6V14C10 14.5523 9.55228 15 9 15C8.44771 15 8 14.5523 8 14V6C8 5.44772 8.44771 5 9 5ZM48 7C48 6.44772 47.5523 6 47 6C46.4477 6 46 6.44772 46 7V15C46 15.5523 46.4477 16 47 16C47.5523 16 48 15.5523 48 15V7ZM13 7C13.5523 7 14 7.44772 14 8V13C14 13.5523 13.5523 14 13 14C12.4477 14 12 13.5523 12 13V8C12 7.44772 12.4477 7 13 7ZM53 8C53 7.44772 52.5523 7 52 7C51.4477 7 51 7.44772 51 8V13C51 13.5523 51.4477 14 52 14C52.5523 14 53 13.5523 53 13V8ZM32 7C32.5523 7 33 7.44772 33 8V13C33 13.5523 32.5523 14 32 14C31.4477 14 31 13.5523 31 13V8C31 7.44772 31.4477 7 32 7ZM28 8C28 7.44772 27.5523 7 27 7C26.4477 7 26 7.44772 26 8V13C26 13.5523 26.4477 14 27 14C27.5523 14 28 13.5523 28 13V8Z" fill="#EDEDED"/>
</svg>
