<svg width="27" height="18" viewBox="0 0 27 18" fill="none" xmlns="http://www.w3.org/2000/svg">
<path fill-rule="evenodd" clip-rule="evenodd" d="M22.886 0.817868C23.0615 0.604705 23.0311 0.289595 22.8179 0.114049C22.6047 -0.0614967 22.2896 -0.0310022 22.1141 0.182161L10.5816 14.1859L7.89635 10.6952C7.72798 10.4763 7.41406 10.4353 7.19518 10.6037C6.9763 10.7721 6.93536 11.086 7.10372 11.3049L9.92923 14.978L8.52458 16.6837L0.904403 6.20593C0.741984 5.9826 0.429276 5.93323 0.205949 6.09565C-0.0173769 6.25807 -0.0667519 6.57077 0.0956672 6.7941L8.09567 17.7941C8.18664 17.9192 8.3304 17.9951 8.48501 17.9998C8.63961 18.0044 8.78767 17.9373 8.886 17.8179L10.5549 15.7914L12.1037 17.8049C12.1966 17.9256 12.3394 17.9974 12.4917 17.9999C12.644 18.0025 12.7892 17.9354 12.886 17.8179L26.886 0.817868C27.0615 0.604705 27.0311 0.289595 26.8179 0.114049C26.6047 -0.0614967 26.2896 -0.0310022 26.1141 0.182161L12.5134 16.6973L11.2072 14.9993L22.886 0.817868Z" fill="#0689A6"/>
</svg>
